<?xml version="1.0" encoding="utf-8"?>
<!-- Generator: Adobe Illustrator 16.0.0, SVG Export Plug-In . SVG Version: 6.00 Build 0)  -->
<!DOCTYPE svg PUBLIC "-//W3C//DTD SVG 1.1//EN" "http://www.w3.org/Graphics/SVG/1.1/DTD/svg11.dtd">
<svg version="1.1" id="Layer_1" xmlns="http://www.w3.org/2000/svg" xmlns:xlink="http://www.w3.org/1999/xlink" x="0px" y="0px"
	 width="16px" height="16px" viewBox="0 0 16 16" enable-background="new 0 0 16 16" xml:space="preserve">
<g>
	<path fill="#FF9D00" d="M6.267,11.596c-0.543,0-1.068-0.064-1.566-0.181c-0.74,0.668-1.577,1.153-2.477,1.444
		c-0.241,0.082-0.499,0.139-0.766,0.183c-0.01,0-0.018,0-0.027,0c-0.134,0-0.258-0.138-0.285-0.325
		c-0.035-0.215,0.08-0.352,0.178-0.498c0.347-0.498,0.739-0.938,1.042-1.876c-1.442-1.062-2.369-2.7-2.369-4.529
		c0-3.196,2.805-5.783,6.269-5.783c3.462,0,6.269,2.587,6.269,5.783C12.536,9.011,9.73,11.596,6.267,11.596z M13.588,13.234
		c0.305,0.938,0.693,1.379,1.042,1.875c0.099,0.146,0.214,0.283,0.179,0.498c-0.037,0.203-0.17,0.35-0.312,0.326
		c-0.268-0.045-0.525-0.102-0.766-0.182c-0.9-0.293-1.735-0.775-2.478-1.445c-0.498,0.114-1.024,0.18-1.565,0.18
		c-1.613,0-3.09-0.562-4.205-1.488c0.259,0.023,0.525,0.044,0.783,0.044c1.916,0,3.722-0.699,5.102-1.964
		c1.489-1.379,2.308-3.242,2.308-5.265c0-0.586-0.07-1.163-0.205-1.716c1.506,1.05,2.485,2.722,2.485,4.608
		C15.957,10.546,15.031,12.173,13.588,13.234z"/>
</g>
</svg>
