<?xml version="1.0" encoding="utf-8"?>
<!-- Generator: Adobe Illustrator 16.0.0, SVG Export Plug-In . SVG Version: 6.00 Build 0)  -->
<!DOCTYPE svg PUBLIC "-//W3C//DTD SVG 1.1//EN" "http://www.w3.org/Graphics/SVG/1.1/DTD/svg11.dtd">
<svg version="1.1" id="Layer_1" xmlns="http://www.w3.org/2000/svg" xmlns:xlink="http://www.w3.org/1999/xlink" x="0px" y="0px"
	 width="16px" height="16px" viewBox="0 0 16 16" enable-background="new 0 0 16 16" xml:space="preserve">
<g>
	<path fill="#FF9D00" d="M7.99,13.332c-0.435,0-0.869-0.031-1.287-0.086c-1.162,1.209-2.546,2.064-4.082,2.521
		c-0.319,0.104-0.665,0.178-1.011,0.229c-0.018,0-0.036,0-0.044,0c-0.178,0-0.338-0.167-0.382-0.396c0-0.013,0-0.013,0-0.013
		c-0.044-0.261,0.106-0.415,0.24-0.604c0.559-0.738,1.197-1.362,1.615-3.104c-1.828-1.219-3-3.104-3-5.218
		C0.04,2.979,3.598,0,7.99,0c4.392,0,7.949,2.979,7.949,6.666C15.939,10.354,12.382,13.332,7.99,13.332z M1.176,6.666
		c0,1.551,0.887,3.031,2.422,4.051l0.772,0.521L4.13,12.24c-0.168,0.736-0.39,1.312-0.621,1.789c0.896-0.438,1.712-1.03,2.44-1.781
		l0.382-0.395l0.505,0.062C7.217,11.968,7.607,12,7.989,12c3.691,0,6.814-2.438,6.814-5.333c0-2.896-3.123-5.333-6.814-5.333
		S1.176,3.77,1.176,6.666z"/>
</g>
</svg>
