<?xml version="1.0" encoding="utf-8"?>
<!-- Generator: Adobe Illustrator 16.0.0, SVG Export Plug-In . SVG Version: 6.00 Build 0)  -->
<!DOCTYPE svg PUBLIC "-//W3C//DTD SVG 1.1//EN" "http://www.w3.org/Graphics/SVG/1.1/DTD/svg11.dtd">
<svg version="1.1" id="Layer_1" xmlns="http://www.w3.org/2000/svg" xmlns:xlink="http://www.w3.org/1999/xlink" x="0px" y="0px"
	 width="16px" height="16px" viewBox="0 0 16 16" enable-background="new 0 0 16 16" xml:space="preserve">
<g>
	<path fill="#FF9D00" d="M15.6,14.9c0,0.418-0.287,0.767-0.635,0.767H1.033c-0.346,0-0.633-0.349-0.633-0.767V9.127
		c0-0.432,0.109-1.067,0.247-1.474L3.002,1.04c0.139-0.396,0.535-0.707,0.881-0.707h8.233c0.346,0,0.741,0.311,0.88,0.707
		l2.355,6.613C15.49,8.06,15.6,8.695,15.6,9.127V14.9z M13.648,8.766c-0.021-0.059-0.028-0.13-0.049-0.188l-2.098-5.942H4.497
		L2.398,8.576c-0.02,0.06-0.029,0.131-0.049,0.189h3.126l0.94,2.301h3.167l0.939-2.301H13.648L13.648,8.766z"/>
</g>
</svg>
