<?xml version="1.0" encoding="utf-8"?>
<!-- Generator: Adobe Illustrator 16.0.0, SVG Export Plug-In . SVG Version: 6.00 Build 0)  -->
<!DOCTYPE svg PUBLIC "-//W3C//DTD SVG 1.1//EN" "http://www.w3.org/Graphics/SVG/1.1/DTD/svg11.dtd">
<svg version="1.1" id="Layer_1" xmlns="http://www.w3.org/2000/svg" xmlns:xlink="http://www.w3.org/1999/xlink" x="0px" y="0px"
	 width="16px" height="16px" viewBox="0 0 16 16" enable-background="new 0 0 16 16" xml:space="preserve">
<g>
	<path fill="#8761FF" d="M15.986,6.672c0,0.736-0.506,1.325-1.135,1.325v3.979c0,0.726-0.518,1.324-1.138,1.324
		c-1.577-1.529-4.124-3.636-7.201-3.936c-1.055,0.412-1.419,1.854-0.728,2.682c-0.621,1.193,0.178,2.032,1.118,2.893
		c-0.55,1.265-2.838,1.285-3.654,0.403c-0.513-1.843-1.275-3.688-0.654-6.02H1.512c-0.78,0-1.418-0.746-1.418-1.657V5.677
		c0-0.912,0.639-1.658,1.418-1.658H5.77c3.405,0,6.244-2.321,7.946-3.979c0.62,0,1.136,0.602,1.136,1.326v3.978
		C15.48,5.345,15.986,5.937,15.986,6.672z M13.716,1.719c-2.313,2.072-4.559,3.264-6.811,3.554V8.07
		c2.252,0.29,4.498,1.462,6.811,3.536V1.719z"/>
</g>
</svg>
