<?xml version="1.0" encoding="utf-8"?>
<!-- Generator: Adobe Illustrator 16.0.0, SVG Export Plug-In . SVG Version: 6.00 Build 0)  -->
<!DOCTYPE svg PUBLIC "-//W3C//DTD SVG 1.1//EN" "http://www.w3.org/Graphics/SVG/1.1/DTD/svg11.dtd">
<svg version="1.1" id="Layer_1" xmlns="http://www.w3.org/2000/svg" xmlns:xlink="http://www.w3.org/1999/xlink" x="0px" y="0px"
	 width="16px" height="16px" viewBox="0 0 16 16" enable-background="new 0 0 16 16" xml:space="preserve">
<g>
	<path fill="#8761FF" d="M16,13.947C16,15.072,15.072,16,13.947,16H2.052C0.927,16,0,15.072,0,13.947V2.052C0,0.927,0.927,0,2.052,0
		h11.896C15.072,0,16,0.927,16,2.052V13.947z M14.188,6.77h-1.405c0.135,0.427,0.206,0.896,0.206,1.364
		c0,2.667-2.229,4.824-4.979,4.824c-2.739,0-4.968-2.157-4.968-4.824c0-0.468,0.073-0.937,0.208-1.364H1.781v6.75
		c0,0.354,0.281,0.638,0.635,0.638h11.136c0.354,0,0.636-0.282,0.636-0.638V6.77z M8.009,4.854c-1.771,0-3.208,1.396-3.208,3.115
		s1.437,3.115,3.208,3.115c1.782,0,3.22-1.396,3.22-3.115S9.791,4.854,8.009,4.854z M14.188,2.5c0-0.396-0.324-0.719-0.719-0.719
		h-1.812c-0.396,0-0.72,0.323-0.72,0.719v1.718c0,0.396,0.322,0.719,0.72,0.719h1.812c0.395,0,0.719-0.323,0.719-0.719V2.5z"/>
</g>
</svg>
