<?xml version="1.0" encoding="utf-8"?>
<!-- Generator: Adobe Illustrator 16.0.0, SVG Export Plug-In . SVG Version: 6.00 Build 0)  -->
<!DOCTYPE svg PUBLIC "-//W3C//DTD SVG 1.1//EN" "http://www.w3.org/Graphics/SVG/1.1/DTD/svg11.dtd">
<svg version="1.1" id="Layer_1" xmlns="http://www.w3.org/2000/svg" xmlns:xlink="http://www.w3.org/1999/xlink" x="0px" y="0px"
	 width="16px" height="16px" viewBox="0 0 16 16" enable-background="new 0 0 16 16" xml:space="preserve">
<g>
	<path fill="#8761FF" d="M2.721,9.139h-1.12c-0.835,0-1.62-0.429-1.62-1.415c0-0.72-0.025-3.139,1.036-3.139
		c0.175,0,1.044,0.755,2.172,0.755c0.384,0,0.751-0.071,1.11-0.204C4.274,5.332,4.258,5.528,4.258,5.724
		C4.258,6.532,4.5,7.333,4.935,8C4.065,8.026,3.28,8.426,2.721,9.139z M3.189,4.585c-1.178,0-2.139-1.023-2.139-2.277
		c0-1.253,0.961-2.276,2.139-2.276c1.177,0,2.138,1.023,2.138,2.276C5.327,3.562,4.366,4.585,3.189,4.585z M11.648,15.967h-7.3
		c-1.335,0-2.229-0.863-2.229-2.304c0-2.011,0.443-5.095,2.89-5.095c0.285,0,1.32,1.236,2.99,1.236s2.705-1.236,2.989-1.236
		c2.447,0,2.891,3.084,2.891,5.095C13.879,15.104,12.984,15.967,11.648,15.967z M7.999,9.139c-1.771,0-3.207-1.531-3.207-3.415
		c0-1.885,1.437-3.415,3.207-3.415c1.771,0,3.207,1.53,3.207,3.415C11.206,7.608,9.77,9.139,7.999,9.139z M12.811,4.585
		c-1.179,0-2.139-1.023-2.139-2.277c0-1.253,0.96-2.276,2.139-2.276c1.176,0,2.139,1.023,2.139,2.276
		C14.947,3.562,13.986,4.585,12.811,4.585z M14.396,9.139h-1.119C12.718,8.426,11.934,8.026,11.062,8
		c0.436-0.667,0.679-1.468,0.679-2.276c0-0.196-0.019-0.392-0.042-0.587c0.359,0.133,0.726,0.204,1.109,0.204
		c1.127,0,1.996-0.755,2.172-0.755c1.062,0,1.035,2.418,1.035,3.139C16.018,8.71,15.23,9.139,14.396,9.139z"/>
</g>
</svg>
